<svg width="14" height="16" viewBox="0 0 14 16" fill="none" xmlns="http://www.w3.org/2000/svg">
<path d="M13.4 14.243C13.4003 14.4048 13.3615 14.5643 13.287 14.708C13.2347 14.8158 13.1607 14.9117 13.0696 14.9896C12.9785 15.0675 12.8723 15.1257 12.7576 15.1605C12.643 15.1953 12.5223 15.2061 12.4033 15.1921C12.2843 15.178 12.1694 15.1395 12.066 15.079L1.266 8.687C1.117 8.59828 0.996036 8.46935 0.917 8.315C0.800826 8.09417 0.772231 7.83764 0.836927 7.59665C0.901624 7.35566 1.05485 7.14795 1.266 7.015L12.066 0.622996C12.197 0.543885 12.3469 0.501407 12.5 0.499996C12.7463 0.507831 12.9795 0.613128 13.1482 0.792755C13.317 0.972383 13.4075 1.21165 13.4 1.458L13.4 14.243Z" fill="white"/>
</svg>
