<svg width="14" height="16" viewBox="0 0 14 16" fill="none" xmlns="http://www.w3.org/2000/svg">
<path d="M0.600015 1.757C0.599732 1.59517 0.638495 1.43566 0.713015 1.292C0.76528 1.18415 0.83929 1.08828 0.930391 1.01041C1.02149 0.932535 1.12772 0.874349 1.24239 0.839507C1.35706 0.804664 1.4777 0.793917 1.59672 0.807942C1.71575 0.821968 1.83058 0.860461 1.93402 0.921004L12.734 7.313C12.883 7.40172 13.004 7.53065 13.083 7.685C13.1992 7.90583 13.2278 8.16236 13.1631 8.40335C13.0984 8.64434 12.9452 8.85205 12.734 8.985L1.93402 15.377C1.80297 15.4561 1.65308 15.4986 1.50002 15.5C1.25368 15.4922 1.02052 15.3869 0.851772 15.2072C0.68302 15.0276 0.59247 14.7884 0.600015 14.542V1.757Z" fill="white"/>
</svg>
